<?xml version="1.0" encoding="UTF-8"?>
<svg version="1.1" viewBox="0 0 1000 1000" xmlns="http://www.w3.org/2000/svg">
 <g transform="translate(0 -52.362)">
  <path d="m872.67 476.1c0 101.09-105.81 163.73-274.65 151.5-249.72-18.09-290.9-34.358-290.9-135.44s119.75-179.82 283.31-179.82 282.24 14.513 282.24 163.77z" color="#000000" fill="#ff9c00"/>
  <path d="m507.05 366.18c0 67.498-87.925 139.04-167.56 139.04s-121.13-102.23-105.95-168c15.099-65.434 51.558-76.431 131.19-76.431s142.32 37.892 142.32 105.39z" color="#000000" fill="#ff9b00"/>
  <g transform="matrix(.75188 0 0 .75188 237.16 125.29)" fill="#2f2f2f">
   <path d="m169.67 374.98c-19.738 0-35.801-20.191-29.607-33.839 8.1564-17.974 51.058-17.974 59.215-1e-5 6.1933 13.648-9.8691 33.839-29.607 33.839z" color="#000000"/>
   <path d="m165.66 366.2v47.933h8v-47.933h-8z" color="#000000" style="block-progression:tb;text-decoration-line:none;text-indent:0;text-transform:none"/>
   <path d="m169.62 410.08a4.0004 4.0004 0 0 0 -3.3125 6.25s7.8304 12.084 20.781 18.406c6.4754 3.1609 14.476 4.853 23.062 2.5s17.471-8.6227 26.219-20.312a4.0004 4.0004 0 1 0 -6.4062 -4.7812c-8.0183 10.715-15.474 15.604-21.938 17.375s-12.229 0.57389-17.438-1.9688c-10.418-5.0853-17.594-15.625-17.594-15.625a4.0004 4.0004 0 0 0 -3.375 -1.8438z" color="#000000" style="block-progression:tb;text-decoration-line:none;text-indent:0;text-transform:none"/>
   <path d="m169.56 410.09a4.0004 4.0004 0 0 0 -3.25 1.8125s-7.1761 10.54-17.594 15.625c-5.2088 2.5426-10.974 3.7712-17.438 2s-13.919-6.6597-21.938-17.375a4.0004 4.0004 0 1 0 -6.4062 4.7812c8.7475 11.69 17.632 17.959 26.219 20.312s16.587 0.62968 23.062-2.5312c12.951-6.3218 20.781-18.375 20.781-18.375a4.0004 4.0004 0 0 0 -3.4375 -6.25z" color="#000000" style="block-progression:tb;text-decoration-line:none;text-indent:0;text-transform:none"/>
  </g>
  <g transform="matrix(.75188 0 0 .75188 56.743 55.483)" fill="#ff9b00">
   <path transform="matrix(.77684 0 0 1 375.09 141.18)" d="m151.68 30.231c40.158 1e-6 117.38 203.31 117.38 203.31l-234.76-1e-5s76.09-203.31 117.38-203.31z" color="#000000"/>
   <path transform="matrix(.77684 0 0 1 208.49 141.18)" d="m151.68 30.231c34.333 1e-6 117.38 203.31 117.38 203.31l-234.76-1e-5s75.977-203.31 117.38-203.31z" color="#000000"/>
  </g>
  <g transform="matrix(.75188 0 0 .75188 63.077 55.483)">
   <circle transform="matrix(1.2273 0 0 1.2273 -465.58 -48.38)" cx="646.5" cy="344.8" r="27.352" color="#000000" fill="#fff"/>
   <circle transform="matrix(.40909 0 0 .40909 53.425 225.03)" cx="646.5" cy="344.8" r="27.352" color="#000000" fill="#2f2f2f"/>
   <circle transform="matrix(1.2273 0 0 1.2273 -318.88 -48.38)" cx="646.5" cy="344.8" r="27.352" color="#000000" fill="#fff"/>
   <circle transform="matrix(.40909 0 0 .40909 200.13 225.03)" cx="646.5" cy="344.8" r="27.352" color="#000000" fill="#2f2f2f"/>
  </g>
  <path d="m394.35 387.64s104.96 3.0973 111.5 1.7207" fill="none" stroke="#fff" stroke-linecap="round" stroke-width="3.7594"/>
  <path d="m394.7 379.72s68.141-15.487 93.607-24.434" fill="none" stroke="#fff" stroke-linecap="round" stroke-width="3.7594"/>
  <path d="m394.01 396.59s87.413 8.6036 98.081 14.798" fill="none" stroke="#fff" stroke-linecap="round" stroke-width="3.7594"/>
  <path d="m334.85 387.76s-89.134-4.818-115.63 0.68829" fill="none" stroke="#fff" stroke-linecap="round" stroke-width="3.7594"/>
  <path d="m337.86 394.3s-55.063 15.142-85.004 12.045" fill="none" stroke="#fff" stroke-linecap="round" stroke-width="3.7594"/>
  <path d="m337.31 380.88s-68.485-6.1946-90.166-16.519" fill="none" stroke="#fff" stroke-linecap="round" stroke-width="3.7594"/>
  <path d="m380.06 564.53s-2.8481 140.08-10.635 163.45c-7.7871 23.361 0.97339 20.441-30.175 12.654" fill="none" stroke="#ff9c00" stroke-linecap="round" stroke-linejoin="round" stroke-width="37.594"/>
  <path d="m443.4 551.79s-3.7784 155.91-7.7871 183.97c-1.9468 13.627-16.548 12.654-32.122 13.627" fill="none" stroke="#ff9c00" stroke-linecap="round" stroke-linejoin="round" stroke-width="37.594"/>
  <path d="m725.68 589.75s9.6248 156.83 7.7871 175.21c-0.97339 9.7339-7.7871 13.627-17.521 13.627" fill="none" stroke="#ff9c00" stroke-linecap="round" stroke-linejoin="round" stroke-width="37.594"/>
  <path d="m799.66 568.34s19.468 208.31-1.9468 214.15c0 0 2.9202 4.867-17.521 6.8137" fill="none" stroke="#ff9c00" stroke-linecap="round" stroke-linejoin="round" stroke-width="37.594"/>
  <path d="m775.96 426.32s63.941 27.862 99.29-40.117 11.096-123.79-39.578-177.13c-50.674-53.341 80.691-88.166 114.52-114.51" fill="none" stroke="#ff9c00" stroke-linecap="round" stroke-width="37.594"/>
  <path d="m575.21 312.57c-11.472 0.34725-22.683 1.108-33.656 2.2188 8.4439 7.2691 39.552 36.96 39.562 80.281l0.0312 50.094s23.788-79.127-3.4062-128.88c-0.72061-1.3182-1.427-2.5329-2.125-3.7188-0.13435 4e-3 -0.27196-4e-3 -0.40625 0zm65.719 0.4375c4.4294 13.887 16.008 54.254 18.219 103.62 2.7463 61.334 4.5938 64.094 4.5938 64.094s14.803-109.07 5.8438-166.53c-9.3182-0.53623-18.89-0.90426-28.656-1.1875zm84.812 6.8438c5.1158 19.996 17.716 71.877 20.625 108.97 3.6617 46.687 2.75 32.031 2.75 32.031s12.259-81.646 0.5-136.5c-7.6696-1.7298-15.638-3.218-23.875-4.5z" fill="#ffbb50"/>
  <path d="m214.98 776.41a8.3324 8.3324 0 0 0 -1.6663 16.42s30.534 7.8977 53.461 17.462c9.7027 4.0474 17.743 9.0883 20.794 11.595-1.4418 0.79643-3.6228 1.8252-6.9777 2.8119-30.398 8.9405-44.118 30.827-41.172 50.753s21.331 36.381 45.685 36.381c18.117 0 39.156 8.9334 60.404 18.538s42.606 19.961 64.014 19.961c20.019 0 46.746-5.0436 69.916-6.3181 11.585-0.63729 22.186-0.27517 29.82 1.6316 7.634 1.9068 11.651 4.718 13.643 9.1995 4.154 9.3464 11.656 15.832 20.1 19.475 8.4436 3.6429 17.811 4.7522 27.078 4.3741 18.532-0.75619 36.775-7.002 48.254-16.455 2.4975-2.0568 6.5685-3.1881 12.15-3.0202 5.5818 0.16787 12.268 1.6531 18.538 3.6798 12.54 4.0533 23.155 9.9632 23.155 9.9632a8.3324 8.3324 0 1 0 8.1233 -14.511s-11.716-6.6199-26.14-11.282c-7.2122-2.3312-15.187-4.2375-23.19-4.4782-8.0026-0.24068-16.461 1.1999-23.224 6.7694-7.0426 5.7998-23.517 12.1-38.36 12.706-7.4217 0.30283-14.421-0.70504-19.788-3.0202s-9.1078-5.6084-11.491-10.97c-4.5451-10.226-14.3-15.988-24.786-18.607s-22.39-2.7647-34.784-2.0829c-24.79 1.3637-51.991 6.2834-69.013 6.2834-15.634 0-35.796-8.8548-57.141-18.503-21.345-9.6483-43.995-19.996-67.278-19.996-17.046 0-27.511-10.752-29.195-22.148-1.6846-11.396 4.2036-24.918 29.369-32.32 7.6935-2.2628 13.247-4.6048 17.219-9.5466 1.9858-2.4709 3.2949-5.9612 3.1591-9.3036-0.13587-3.3424-1.4486-6.1488-3.0202-8.3663-6.2865-8.87-17.07-13.413-29.438-18.572-24.737-10.319-55.752-18.225-55.752-18.225a8.3324 8.3324 0 0 0 -2.4648 -0.27772z" color="#000000" fill="#cd060e" style="block-progression:tb;text-decoration-line:none;text-indent:0;text-transform:none"/>
  <circle transform="scale(-1,1)" cx="-201.23" cy="845.77" r="126.38" color="#000000" fill="#be0000"/>
  <path d="m201.23 719.4c9.4184 0 18.594 1.0315 27.425 2.9855l98.59 133.1c-2.5528 33.55-18.218 63.443-41.866 84.566l-116.36-216.52c10.283-2.7024 21.084-4.1311 32.215-4.1311z" fill="#d81616"/>
  <path d="m321.03 805.49c4.2542 12.655 6.5611 26.18 6.5611 40.269 0 69.797-56.565 126.4-126.36 126.4-2.2162 0-4.4077-0.0609-6.5958-0.17358l126.4-166.49z" fill="#a70000"/>
  <path d="m76.428 825.7 238.87 74.509c-3.9433 11.778-1.4596 5.0831-8.4904 15.027l-231.53-58.779c-0.29562-3.5268-0.41658-7.089-0.41658-10.692 0-6.8343 0.51791-13.525 1.5622-20.065z" fill="#cd060e"/>
  <path d="m201.23 719.4c10.956 0 21.593 1.3719 31.729 3.9922l-79.497 239.43c-9.4759-3.8711-18.36-8.8813-26.522-14.823l57.106-227.42c5.6198-0.76412 11.354-1.1803 17.184-1.1803z" fill="#d42b2b"/>
  <path d="m214.98 776.41a8.3324 8.3324 0 0 0 -1.6663 16.42s30.534 7.8977 53.461 17.462c9.7027 4.0474 17.743 9.0883 20.794 11.595-1.4418 0.79643-3.6228 1.8252-6.9777 2.8119-30.398 8.9405-44.118 30.827-41.172 50.753s21.331 36.381 45.685 36.381c18.117 0 39.156 8.9334 60.404 18.538s42.606 19.961 64.014 19.961c20.019 0 46.746-5.0436 69.916-6.3181 11.585-0.63729 22.186-0.27517 29.82 1.6316 7.634 1.9068 11.651 4.718 13.643 9.1995 4.154 9.3464 11.656 15.832 20.1 19.475 8.4436 3.6429 17.811 4.7522 27.078 4.3741 18.532-0.75619 36.775-7.002 48.254-16.455 2.4975-2.0568 6.5685-3.1881 12.15-3.0202 5.5818 0.16787 12.268 1.6531 18.538 3.6798 12.54 4.0533 23.155 9.9632 23.155 9.9632a8.3324 8.3324 0 1 0 8.1233 -14.511s-11.716-6.6199-26.14-11.282c-7.2122-2.3312-15.187-4.2375-23.19-4.4782-8.0026-0.24068-16.461 1.1999-23.224 6.7694-7.0426 5.7998-23.517 12.1-38.36 12.706-7.4217 0.30283-14.421-0.70504-19.788-3.0202s-9.1078-5.6084-11.491-10.97c-4.5451-10.226-14.3-15.988-24.786-18.607s-22.39-2.7647-34.784-2.0829c-24.79 1.3637-51.991 6.2834-69.013 6.2834-15.634 0-35.796-8.8548-57.141-18.503-21.345-9.6483-43.995-19.996-67.278-19.996-17.046 0-27.511-10.752-29.195-22.148-1.6846-11.396 4.2036-24.918 29.369-32.32 7.6935-2.2628 13.247-4.6048 17.219-9.5466 1.9858-2.4709 3.2949-5.9612 3.1591-9.3036-0.13587-3.3424-1.4486-6.1488-3.0202-8.3663-6.2865-8.87-17.07-13.413-29.438-18.572-24.737-10.319-55.752-18.225-55.752-18.225a8.3324 8.3324 0 0 0 -2.4648 -0.27772z" color="#000000" fill="#cd060e" style="block-progression:tb;text-decoration-line:none;text-indent:0;text-transform:none"/>
  <circle transform="scale(-1,1)" cx="-201.23" cy="845.77" r="126.38" color="#000000" fill="#be0000"/>
  <path d="m201.23 719.4c9.4184 0 18.594 1.0315 27.425 2.9855l98.59 133.1c-2.5528 33.55-18.218 63.443-41.866 84.566l-116.36-216.52c10.283-2.7024 21.084-4.1311 32.215-4.1311z" fill="#d81616"/>
  <path d="m321.03 805.49c4.2542 12.655 6.5611 26.18 6.5611 40.269 0 69.797-56.565 126.4-126.36 126.4-2.2162 0-4.4077-0.0609-6.5958-0.17358l126.4-166.49z" fill="#a70000"/>
  <path d="m76.428 825.7 238.87 74.509c-3.9433 11.778-1.4596 5.0831-8.4904 15.027l-231.53-58.779c-0.29562-3.5268-0.41658-7.089-0.41658-10.692 0-6.8343 0.51791-13.525 1.5622-20.065z" fill="#cd060e"/>
  <path d="m201.23 719.4c10.956 0 21.593 1.3719 31.729 3.9922l-79.497 239.43c-9.4759-3.8711-18.36-8.8813-26.522-14.823l57.106-227.42c5.6198-0.76412 11.354-1.1803 17.184-1.1803z" fill="#d42b2b"/>
 </g>
</svg>
